<?xml version="1.0" encoding="utf-8"?>
<!-- Generator: Adobe Illustrator 26.1.0, SVG Export Plug-In . SVG Version: 6.00 Build 0)  -->
<svg version="1.1" id="Layer_1" xmlns="http://www.w3.org/2000/svg" xmlns:xlink="http://www.w3.org/1999/xlink" x="0px" y="0px"
	 viewBox="0 0 626.58 98.89" style="enable-background:new 0 0 626.58 98.89;" xml:space="preserve">
<style type="text/css">
	.st0{fill:#01E173;}
	.st1{fill:none;stroke:#01E173;stroke-width:23.3516;stroke-miterlimit:10;}
	.st2{fill:none;stroke:#FFFFFF;stroke-width:23.3516;stroke-miterlimit:10;}
	.st3{fill:none;stroke:#000000;stroke-width:23.3516;stroke-miterlimit:10;}
	.st4{fill:none;stroke:#FFFFFF;stroke-width:11;stroke-miterlimit:10;}
	.st5{fill:none;stroke:#1D1B93;stroke-width:11;stroke-miterlimit:10;}
	.st6{fill:#FFFFFF;}
	.st7{fill:none;stroke:#01E173;stroke-width:11;stroke-miterlimit:10;}
	.st8{fill:none;stroke:#000000;stroke-width:11;stroke-miterlimit:10;}
	.st9{fill:none;stroke:#1100ED;stroke-width:11;stroke-miterlimit:10;}
	.st10{fill:none;stroke:#17CE84;stroke-width:11;stroke-miterlimit:10;}
	.st11{fill:none;stroke:#01E173;stroke-width:13.4708;stroke-miterlimit:10;}
	.st12{fill:none;stroke:#000000;stroke-width:13.4708;stroke-miterlimit:10;}
	.st13{fill:#1100ED;}
	.st14{fill:none;stroke:#1100ED;stroke-width:23.3516;stroke-miterlimit:10;}
	.st15{fill:none;stroke:#E0A90E;stroke-width:23.3516;stroke-miterlimit:10;}
	.st16{fill:none;stroke:#E0A90E;stroke-width:11;stroke-miterlimit:10;}
	.st17{fill:#17CE84;}
	.st18{fill:#E0A90E;}
	.st19{fill:none;stroke:#1100ED;stroke-width:13.4708;stroke-miterlimit:10;}
	.st20{fill:none;stroke:#E0A90E;stroke-width:13.4708;stroke-miterlimit:10;}
</style>
<rect class="st0" width="626.58" height="98.89"/>
<path class="st6" d="M339.47,93.47h-52.36c-8.5,0-15.38-6.89-15.38-15.38V25.72c0-8.5,6.89-15.38,15.38-15.38h52.36
	c8.5,0,15.38,6.89,15.38,15.38v52.36C354.85,86.58,347.97,93.47,339.47,93.47z"/>
<polyline class="st7" points="330.52,73.57 313.29,56.18 296.07,73.57 "/>
<polyline class="st7" points="330.52,47.63 313.29,30.24 296.07,47.63 "/>
<g>
	<path d="M12.12,73.86V18.74h9.95l22.14,39.82h-5.27L60.7,18.74h9.88l0.15,55.12H59.44l-0.07-37.69h2.08l-17.38,32.2h-5.42
		l-17.75-32.2h2.53v37.69H12.12z"/>
	<path d="M94.57,74.45c-3.12,0-5.79-0.53-8.02-1.6s-3.94-2.51-5.13-4.35c-1.19-1.83-1.78-3.89-1.78-6.17c0-2.38,0.58-4.46,1.75-6.24
		c1.16-1.78,3.01-3.18,5.53-4.2c2.53-1.01,5.82-1.52,9.88-1.52h10.62v6.76h-9.36c-2.72,0-4.59,0.45-5.61,1.34
		c-1.02,0.89-1.52,2.01-1.52,3.34c0,1.49,0.58,2.66,1.75,3.53c1.16,0.87,2.76,1.3,4.79,1.3c1.93,0,3.66-0.46,5.2-1.37
		c1.53-0.92,2.65-2.27,3.34-4.05l1.78,5.35c-0.84,2.58-2.38,4.53-4.61,5.87C100.96,73.78,98.09,74.45,94.57,74.45z M106.76,73.86
		v-7.8l-0.74-1.71V50.38c0-2.48-0.76-4.41-2.27-5.79c-1.51-1.39-3.83-2.08-6.95-2.08c-2.13,0-4.22,0.33-6.28,1
		c-2.06,0.67-3.8,1.57-5.24,2.71l-4.16-8.1c2.18-1.53,4.8-2.72,7.87-3.57c3.07-0.84,6.19-1.26,9.36-1.26
		c6.09,0,10.82,1.44,14.19,4.31c3.37,2.87,5.05,7.35,5.05,13.45v22.81H106.76z"/>
	<path d="M180.74,74.45c-3.12,0-5.79-0.53-8.02-1.6s-3.94-2.51-5.13-4.35c-1.19-1.83-1.78-3.89-1.78-6.17
		c0-2.38,0.58-4.46,1.75-6.24c1.16-1.78,3.01-3.18,5.53-4.2c2.53-1.01,5.82-1.52,9.88-1.52h10.62v6.76h-9.36
		c-2.72,0-4.59,0.45-5.61,1.34c-1.02,0.89-1.52,2.01-1.52,3.34c0,1.49,0.58,2.66,1.75,3.53c1.16,0.87,2.76,1.3,4.79,1.3
		c1.93,0,3.66-0.46,5.2-1.37c1.53-0.92,2.65-2.27,3.34-4.05l1.78,5.35c-0.84,2.58-2.38,4.53-4.61,5.87
		C187.13,73.78,184.26,74.45,180.74,74.45z M192.93,73.86v-7.8l-0.74-1.71V50.38c0-2.48-0.76-4.41-2.27-5.79
		c-1.51-1.39-3.83-2.08-6.95-2.08c-2.13,0-4.22,0.33-6.28,1c-2.06,0.67-3.8,1.57-5.24,2.71l-4.16-8.1c2.18-1.53,4.8-2.72,7.87-3.57
		c3.07-0.84,6.19-1.26,9.36-1.26c6.09,0,10.82,1.44,14.19,4.31c3.37,2.87,5.05,7.35,5.05,13.45v22.81H192.93z"/>
	<path d="M231.7,74.45c-3.76,0-7.16-0.85-10.18-2.56c-3.02-1.71-5.41-4.1-7.17-7.17c-1.76-3.07-2.64-6.69-2.64-10.85
		c0-4.21,0.88-7.85,2.64-10.92c1.76-3.07,4.15-5.45,7.17-7.13c3.02-1.68,6.41-2.53,10.18-2.53c3.37,0,6.31,0.74,8.84,2.23
		c2.53,1.49,4.48,3.74,5.87,6.76c1.39,3.02,2.08,6.88,2.08,11.59c0,4.66-0.67,8.51-2.01,11.55c-1.34,3.05-3.26,5.31-5.76,6.8
		C238.23,73.71,235.22,74.45,231.7,74.45z M233.71,64.94c1.88,0,3.59-0.45,5.13-1.34c1.53-0.89,2.76-2.17,3.68-3.83
		c0.92-1.66,1.37-3.63,1.37-5.91c0-2.33-0.46-4.31-1.37-5.94c-0.92-1.63-2.14-2.9-3.68-3.79c-1.54-0.89-3.24-1.34-5.13-1.34
		c-1.93,0-3.67,0.45-5.2,1.34c-1.54,0.89-2.76,2.15-3.68,3.79c-0.92,1.63-1.37,3.62-1.37,5.94c0,2.28,0.46,4.25,1.37,5.91
		c0.92,1.66,2.14,2.93,3.68,3.83C230.04,64.5,231.78,64.94,233.71,64.94z M244.18,73.86v-8.17l0.22-11.89l-0.74-11.81V18.74h11.59
		v55.12H244.18z"/>
	<polyline class="st4" points="159.38,43.87 142.16,26.48 124.93,43.87 	"/>
	<polyline class="st4" points="159.38,71.11 142.16,53.72 124.93,71.11 	"/>
</g>
<g>
	<g>
		<path d="M367.07,69.92l4.29-11.11c2.16,0.93,4.23,1.63,6.21,2.1c1.98,0.47,3.96,0.7,5.95,0.7c2.04,0,3.75-0.19,5.12-0.57
			c1.37-0.38,2.41-0.95,3.11-1.71c0.7-0.76,1.05-1.66,1.05-2.71c0-0.99-0.31-2.36-0.92-4.11c-0.61-1.75-1.71-4.04-3.28-6.87
			c-1.57-2.83-3.88-6.34-6.91-10.54l10.41-6.91c2.8,3.97,5.22,7.83,7.26,11.59c2.04,3.76,3.63,7.26,4.77,10.5
			c1.14,3.24,1.71,6.08,1.71,8.53c0,3.03-0.8,5.67-2.41,7.92c-1.6,2.25-3.97,4.01-7.09,5.29c-3.12,1.28-6.95,1.92-11.5,1.92
			c-1.69,0-3.59-0.15-5.69-0.44c-2.1-0.29-4.21-0.73-6.34-1.31C370.67,71.62,368.76,70.86,367.07,69.92z"/>
		<path d="M432.33,93.63l-4.46-10.85c3.09-1.05,5.93-2.27,8.53-3.67c2.59-1.4,4.85-2.95,6.78-4.64s3.41-3.54,4.46-5.55
			s1.57-4.18,1.57-6.52c0-2.45-0.55-5.13-1.66-8.05c-1.11-2.92-2.45-5.89-4.02-8.92l11.46-5.51c1.05,1.81,1.97,3.75,2.76,5.82
			c0.79,2.07,1.44,3.92,1.97,5.55c0.53,1.63,0.88,2.74,1.05,3.32c0.82,2.8,1.94,4.67,3.37,5.6c1.43,0.93,3.75,1.4,6.95,1.4
			c2.21,0,3.8,0.57,4.77,1.71c0.96,1.14,1.44,2.55,1.44,4.24c0,1.81-0.61,3.31-1.84,4.5s-2.97,1.79-5.25,1.79
			c-2.39,0-4.49-0.35-6.3-1.05c-1.81-0.7-3.25-1.72-4.33-3.06c-1.08-1.34-1.76-2.92-2.06-4.72l3.24,1.84
			c-0.35,3.09-1.36,6.02-3.02,8.79c-1.66,2.77-3.81,5.32-6.43,7.65c-2.62,2.33-5.57,4.37-8.83,6.12
			C439.21,91.18,435.83,92.58,432.33,93.63z M450.17,31c-1.81,0-3.34-0.61-4.59-1.84c-1.25-1.22-1.88-2.74-1.88-4.55
			c0-1.81,0.63-3.35,1.88-4.64c1.25-1.28,2.78-1.92,4.59-1.92c1.75,0,3.25,0.64,4.5,1.92c1.25,1.28,1.88,2.83,1.88,4.64
			c0,1.81-0.63,3.32-1.88,4.55C453.42,30.39,451.92,31,450.17,31z"/>
		<path d="M470.29,73.86l0.87-12.25h25.19c2.22,0,3.81,0.57,4.77,1.71c0.96,1.14,1.44,2.55,1.44,4.24c0,1.81-0.61,3.31-1.84,4.5
			s-2.97,1.79-5.25,1.79H470.29z"/>
		<path d="M495.57,73.86l0.87-12.25h25.19c2.22,0,3.81,0.57,4.77,1.71c0.96,1.14,1.44,2.55,1.44,4.24c0,1.81-0.61,3.31-1.84,4.5
			s-2.97,1.79-5.25,1.79H495.57z"/>
		<path d="M520.85,73.86l0.88-12.25h25.19c2.22,0,3.8,0.57,4.77,1.71c0.96,1.14,1.44,2.55,1.44,4.24c0,1.81-0.61,3.31-1.84,4.5
			s-2.97,1.79-5.25,1.79H520.85z"/>
		<path d="M546.12,73.86L547,61.62h25.19c2.22,0,3.8,0.57,4.77,1.71c0.96,1.14,1.44,2.55,1.44,4.24c0,1.81-0.61,3.31-1.84,4.5
			s-2.97,1.79-5.25,1.79H546.12z"/>
		<path d="M571.4,73.86l0.87-12.25c1.34,0,2.49-0.33,3.46-1.01c0.96-0.67,1.97-1.81,3.02-3.41c1.05-1.6,2.27-3.77,3.67-6.52
			c1.75-3.5,3.57-6.24,5.47-8.22c1.89-1.98,3.85-3.4,5.86-4.24c2.01-0.84,4.04-1.27,6.08-1.27c2.57,0,4.96,0.55,7.17,1.66
			c2.22,1.11,4.14,2.61,5.77,4.5c1.63,1.9,2.9,4.05,3.8,6.47c0.9,2.42,1.36,4.91,1.36,7.48c0,3.09-0.66,5.88-1.97,8.35
			c-1.31,2.48-3.12,4.43-5.42,5.86c-2.3,1.43-4.94,2.14-7.92,2.14c-2.51,0-5.42-0.44-8.75-1.31c-3.32-0.87-6.82-2.71-10.5-5.51
			l4.46-10.58c2.62,1.81,5.09,3.12,7.39,3.94c2.3,0.82,4.21,1.22,5.73,1.22c1.17,0,2.13-0.12,2.89-0.35
			c0.76-0.23,1.31-0.61,1.66-1.14c0.35-0.52,0.53-1.22,0.53-2.1c0-1.22-0.29-2.48-0.88-3.76c-0.58-1.28-1.36-2.38-2.32-3.28
			c-0.96-0.9-2.09-1.36-3.37-1.36c-1.22,0-2.26,0.45-3.11,1.36c-0.85,0.9-1.66,2.19-2.45,3.85s-1.74,3.6-2.84,5.82
			c-1.34,2.68-2.65,4.91-3.94,6.69c-1.28,1.78-2.64,3.18-4.07,4.2c-1.43,1.02-3.09,1.74-4.99,2.14
			C576.2,73.66,573.97,73.86,571.4,73.86z"/>
	</g>
	<polyline class="st4" points="617.94,30.95 600.71,13.57 583.49,30.95 	"/>
	<rect x="414.39" y="18.74" width="13.19" height="55.12"/>
</g>
</svg>
