<?xml version="1.0" encoding="utf-8"?>
<!-- Generator: Adobe Illustrator 26.1.0, SVG Export Plug-In . SVG Version: 6.00 Build 0)  -->
<svg version="1.1" id="Layer_1" xmlns="http://www.w3.org/2000/svg" xmlns:xlink="http://www.w3.org/1999/xlink" x="0px" y="0px"
	 viewBox="0 0 352.72 98.89" style="enable-background:new 0 0 352.72 98.89;" xml:space="preserve">
<style type="text/css">
	.st0{fill:#01E173;}
	.st1{fill:none;stroke:#01E173;stroke-width:23.3516;stroke-miterlimit:10;}
	.st2{fill:none;stroke:#FFFFFF;stroke-width:23.3516;stroke-miterlimit:10;}
	.st3{fill:none;stroke:#000000;stroke-width:23.3516;stroke-miterlimit:10;}
	.st4{fill:none;stroke:#FFFFFF;stroke-width:11;stroke-miterlimit:10;}
	.st5{fill:none;stroke:#000000;stroke-width:11;stroke-miterlimit:10;}
	.st6{fill:none;stroke:#1D1B93;stroke-width:11;stroke-miterlimit:10;}
	.st7{fill:none;stroke:#01E173;stroke-width:11;stroke-miterlimit:10;}
	.st8{fill:none;stroke:#1100ED;stroke-width:11;stroke-miterlimit:10;}
	.st9{fill:none;stroke:#17CE84;stroke-width:11;stroke-miterlimit:10;}
	.st10{fill:#FFFFFF;}
	.st11{fill:none;stroke:#01E173;stroke-width:13.4708;stroke-miterlimit:10;}
	.st12{fill:none;stroke:#000000;stroke-width:13.4708;stroke-miterlimit:10;}
	.st13{fill:#1100ED;}
	.st14{fill:none;stroke:#1100ED;stroke-width:23.3516;stroke-miterlimit:10;}
	.st15{fill:none;stroke:#E0A90E;stroke-width:23.3516;stroke-miterlimit:10;}
	.st16{fill:none;stroke:#E0A90E;stroke-width:11;stroke-miterlimit:10;}
	.st17{fill:#17CE84;}
	.st18{fill:#E0A90E;}
	.st19{fill:none;stroke:#1100ED;stroke-width:13.4708;stroke-miterlimit:10;}
	.st20{fill:none;stroke:#E0A90E;stroke-width:13.4708;stroke-miterlimit:10;}
</style>
<path class="st0" d="M74.26,93.47H21.9c-8.5,0-15.38-6.89-15.38-15.38V25.72c0-8.5,6.89-15.38,15.38-15.38h52.36
	c8.5,0,15.38,6.89,15.38,15.38v52.36C89.64,86.58,82.75,93.47,74.26,93.47z"/>
<polyline class="st4" points="65.3,73.57 48.08,56.18 30.85,73.57 "/>
<polyline class="st5" points="65.3,47.63 48.08,30.24 30.85,47.63 "/>
<g>
	<path d="M103.8,79.17V24.05h9.95l22.14,39.82h-5.27l21.77-39.82h9.88l0.15,55.12h-11.29l-0.07-37.69h2.08l-17.38,32.2h-5.42
		l-17.75-32.2h2.53v37.69H103.8z"/>
	<path d="M186.25,79.76c-3.12,0-5.79-0.53-8.02-1.6s-3.94-2.51-5.13-4.35c-1.19-1.83-1.78-3.89-1.78-6.17
		c0-2.38,0.58-4.46,1.75-6.24c1.16-1.78,3.01-3.18,5.53-4.2c2.53-1.01,5.82-1.52,9.88-1.52h10.62v6.76h-9.36
		c-2.72,0-4.59,0.45-5.61,1.34c-1.02,0.89-1.52,2.01-1.52,3.34c0,1.49,0.58,2.66,1.75,3.53c1.16,0.87,2.76,1.3,4.79,1.3
		c1.93,0,3.66-0.46,5.2-1.37c1.53-0.92,2.65-2.27,3.34-4.05l1.78,5.35c-0.84,2.58-2.38,4.53-4.61,5.87
		C192.64,79.09,189.77,79.76,186.25,79.76z M198.44,79.17v-7.8l-0.74-1.71V55.69c0-2.48-0.76-4.41-2.27-5.79
		c-1.51-1.39-3.83-2.08-6.95-2.08c-2.13,0-4.22,0.33-6.28,1c-2.06,0.67-3.8,1.57-5.24,2.71l-4.16-8.1c2.18-1.53,4.8-2.72,7.87-3.57
		c3.07-0.84,6.19-1.26,9.36-1.26c6.09,0,10.82,1.44,14.19,4.31c3.37,2.87,5.05,7.35,5.05,13.45v22.81H198.44z"/>
	<path d="M272.42,79.76c-3.12,0-5.79-0.53-8.02-1.6s-3.94-2.51-5.13-4.35c-1.19-1.83-1.78-3.89-1.78-6.17
		c0-2.38,0.58-4.46,1.75-6.24c1.16-1.78,3.01-3.18,5.53-4.2c2.53-1.01,5.82-1.52,9.88-1.52h10.62v6.76h-9.36
		c-2.72,0-4.59,0.45-5.61,1.34c-1.02,0.89-1.52,2.01-1.52,3.34c0,1.49,0.58,2.66,1.75,3.53c1.16,0.87,2.76,1.3,4.79,1.3
		c1.93,0,3.66-0.46,5.2-1.37c1.53-0.92,2.65-2.27,3.34-4.05l1.78,5.35c-0.84,2.58-2.38,4.53-4.61,5.87
		C278.81,79.09,275.94,79.76,272.42,79.76z M284.61,79.17v-7.8l-0.74-1.71V55.69c0-2.48-0.76-4.41-2.27-5.79
		c-1.51-1.39-3.83-2.08-6.95-2.08c-2.13,0-4.22,0.33-6.28,1c-2.06,0.67-3.8,1.57-5.24,2.71l-4.16-8.1c2.18-1.53,4.8-2.72,7.87-3.57
		c3.07-0.84,6.19-1.26,9.36-1.26c6.09,0,10.82,1.44,14.19,4.31c3.37,2.87,5.05,7.35,5.05,13.45v22.81H284.61z"/>
	<path d="M323.38,79.76c-3.76,0-7.16-0.85-10.18-2.56c-3.02-1.71-5.41-4.1-7.17-7.17c-1.76-3.07-2.64-6.69-2.64-10.85
		c0-4.21,0.88-7.85,2.64-10.92c1.76-3.07,4.15-5.45,7.17-7.13c3.02-1.68,6.41-2.53,10.18-2.53c3.37,0,6.31,0.74,8.84,2.23
		c2.53,1.49,4.48,3.74,5.87,6.76c1.39,3.02,2.08,6.88,2.08,11.59c0,4.66-0.67,8.51-2.01,11.55c-1.34,3.05-3.26,5.31-5.76,6.8
		C329.91,79.02,326.9,79.76,323.38,79.76z M325.39,70.25c1.88,0,3.59-0.45,5.13-1.34c1.53-0.89,2.76-2.17,3.68-3.83
		c0.92-1.66,1.37-3.63,1.37-5.91c0-2.33-0.46-4.31-1.37-5.94c-0.92-1.63-2.14-2.9-3.68-3.79c-1.54-0.89-3.24-1.34-5.13-1.34
		c-1.93,0-3.67,0.45-5.2,1.34c-1.54,0.89-2.76,2.15-3.68,3.79c-0.92,1.63-1.37,3.62-1.37,5.94c0,2.28,0.46,4.25,1.37,5.91
		c0.92,1.66,2.14,2.93,3.68,3.83C321.72,69.81,323.46,70.25,325.39,70.25z M335.86,79.17V71l0.22-11.89l-0.74-11.81V24.05h11.59
		v55.12H335.86z"/>
	<polyline class="st7" points="251.06,49.18 233.83,31.79 216.61,49.18 	"/>
	<polyline class="st7" points="251.06,76.42 233.83,59.03 216.61,76.42 	"/>
</g>
</svg>
